<svg width="28" height="28" viewBox="0 0 28 28" fill="none" xmlns="http://www.w3.org/2000/svg">
<mask id="mask0_6_1754" style="mask-type:luminance" maskUnits="userSpaceOnUse" x="4" y="4" width="20" height="20">
<path fill-rule="evenodd" clip-rule="evenodd" d="M22.8428 7.88352C22.6048 7.27044 22.2874 6.75112 21.7681 6.2318C21.2488 5.71248 20.7295 5.39512 20.1164 5.15709C19.5249 4.92629 18.8397 4.7676 17.8516 4.72433L17.8348 4.7236C16.8526 4.68089 16.5245 4.66663 14 4.66663C11.4611 4.66663 11.1437 4.67384 10.1483 4.72433C9.15297 4.7676 8.47497 4.92629 7.88352 5.15709C7.27044 5.39512 6.75112 5.71248 6.2318 6.2318C5.71248 6.75112 5.39512 7.27044 5.15709 7.88352C4.92629 8.47497 4.7676 9.16019 4.72433 10.1483L4.7236 10.1651C4.68089 11.1473 4.66663 11.4754 4.66663 14C4.66663 16.5389 4.67384 16.8562 4.72433 17.8516C4.7676 18.8469 4.92629 19.5249 5.15709 20.1164C5.39512 20.7295 5.71248 21.2488 6.2318 21.7681C6.75112 22.2874 7.27044 22.6048 7.88352 22.8428C8.47497 23.0736 9.16019 23.2323 10.1483 23.2756L10.1651 23.2763C11.1473 23.319 11.4754 23.3333 14 23.3333C16.5389 23.3333 16.8562 23.3261 17.8516 23.2756C18.8469 23.2323 19.5249 23.0736 20.1164 22.8428C20.7295 22.6048 21.2488 22.2874 21.7681 21.7681C22.2874 21.2488 22.6048 20.7295 22.8428 20.1164C23.0736 19.5249 23.2323 18.8397 23.2756 17.8516L23.2763 17.8348C23.319 16.8526 23.3333 16.5245 23.3333 14C23.3333 11.4611 23.3261 11.1437 23.2756 10.1483C23.2323 9.15297 23.0736 8.47497 22.8428 7.88352ZM20.9472 17.4472C20.9077 18.2777 20.7693 18.7325 20.6506 19.0291C20.499 19.4246 20.3079 19.7146 20.0113 20.0113C19.7146 20.3079 19.4312 20.4924 19.0291 20.6506C18.7259 20.7693 18.2777 20.9077 17.4472 20.9472L17.4043 20.9491C16.5352 20.9872 16.244 21 14 21C11.7194 21 11.4491 20.9934 10.5527 20.9472C9.72218 20.9077 9.26738 20.7693 8.97077 20.6506C8.57529 20.499 8.28527 20.3079 7.98866 20.0113C7.69205 19.7146 7.50749 19.4312 7.3493 19.0291C7.23066 18.7259 7.09224 18.2777 7.05269 17.4472L7.05113 17.4116C7.01279 16.5367 6.99996 16.2438 6.99996 14C6.99996 11.7259 7.00655 11.4491 7.05269 10.5527C7.09224 9.72218 7.23066 9.26738 7.3493 8.97077C7.5009 8.57529 7.69205 8.28527 7.98866 7.98866C8.28527 7.69205 8.5687 7.50749 8.97077 7.3493C9.27397 7.23066 9.72218 7.09224 10.5527 7.05269L10.5884 7.05113C11.4632 7.01279 11.7562 6.99996 14 6.99996C16.274 6.99996 16.5508 7.00655 17.4472 7.05269C18.2777 7.09224 18.7325 7.23066 19.0291 7.3493C19.4246 7.5009 19.7146 7.69205 20.0113 7.98866C20.3079 8.28527 20.4924 8.5687 20.6506 8.97077C20.7693 9.27397 20.9077 9.72218 20.9472 10.5527L20.9488 10.5884C20.9871 11.4632 21 11.7562 21 14C21 16.2522 20.987 16.5453 20.9484 17.4217V17.4217L20.9472 17.4472ZM19.8333 9.33329C19.8333 9.97762 19.311 10.5 18.6666 10.5C18.0223 10.5 17.5 9.97762 17.5 9.33329C17.5 8.68896 18.0223 8.16663 18.6666 8.16663C19.311 8.16663 19.8333 8.68896 19.8333 9.33329ZM14 9.33329C11.4245 9.33329 9.33329 11.4245 9.33329 14C9.33329 16.5754 11.4245 18.6666 14 18.6666C16.5754 18.6666 18.6666 16.5754 18.6666 14C18.6666 11.4245 16.5754 9.33329 14 9.33329ZM11.6666 14C11.6666 15.2909 12.7145 16.3333 14 16.3333C15.2855 16.3333 16.3333 15.2855 16.3333 14C16.3333 12.7091 15.2909 11.6666 14 11.6666C12.7091 11.6666 11.6666 12.7145 11.6666 14Z" fill="white"/>
</mask>
<g mask="url(#mask0_6_1754)">
<rect x="2.80005" y="2.80005" width="22.4" height="22.4" fill="url(#paint0_linear_6_1754)"/>
</g>
<defs>
<linearGradient id="paint0_linear_6_1754" x1="14" y1="2.80005" x2="14" y2="25.2" gradientUnits="userSpaceOnUse">
<stop stop-color="#FF0090"/>
<stop offset="1" stop-color="#0575E6"/>
</linearGradient>
</defs>
</svg>
