<svg width="47" height="37" viewBox="0 0 47 37" fill="none" xmlns="http://www.w3.org/2000/svg">
<path d="M3.00218 24.879L7.24262 22.9512C7.4723 22.8468 7.74184 22.8105 8.00253 22.8489L16.3459 24.0786C17.0315 24.1797 17.6645 23.764 17.6614 23.2147L17.6289 17.4578C17.628 17.3014 17.6804 17.1476 17.7805 17.0126L21.991 11.3359C22.2102 11.0404 22.1905 10.6715 21.9408 10.3916L14.8515 2.44495M39.2543 6.00334C27.0321 10.6251 33.6984 16.7501 35.921 17.6251C40.0923 19.2672 45.8931 19.375 45.8931 19.375C45.9112 19.0851 45.9205 18.7934 45.9205 18.5C45.9205 8.83502 35.9713 1 23.6983 1C11.4253 1 1.47607 8.83502 1.47607 18.5C1.47607 28.165 11.4253 36 23.6983 36C24.0709 36 24.4413 35.9928 24.8094 35.9785M34.2712 35.8946L27.2339 21.2843L45.7867 26.8261L37.5597 29.4159L34.2712 35.8946Z" stroke="white" stroke-width="2" stroke-linecap="round" stroke-linejoin="round"/>
</svg>
