<svg width="28" height="28" viewBox="0 0 28 28" fill="none" xmlns="http://www.w3.org/2000/svg">
<mask id="mask0_6_1739" style="mask-type:luminance" maskUnits="userSpaceOnUse" x="5" y="7" width="18" height="15">
<path fill-rule="evenodd" clip-rule="evenodd" d="M22.4 9.12352C21.7819 9.40514 21.1181 9.59521 20.4202 9.67975C21.1318 9.24252 21.6784 8.55006 21.9363 7.72514C21.2699 8.12952 20.5326 8.4246 19.7475 8.58237C19.1184 7.89583 18.2226 7.46667 17.2306 7.46667C15.327 7.46667 13.7847 9.04867 13.7847 11.0006C13.7847 11.2774 13.8146 11.5477 13.8734 11.8061C11.0088 11.6586 8.46929 10.2516 6.76892 8.11337C6.47274 8.63567 6.3026 9.24252 6.3026 9.89029C6.3026 11.1169 6.91123 12.1981 7.83546 12.8324C7.27094 12.8136 6.73951 12.6553 6.27477 12.3904C6.27424 12.4049 6.27424 12.4205 6.27424 12.4345C6.27424 14.1474 7.46209 15.5759 9.03906 15.9006C8.75024 15.9808 8.44566 16.0244 8.13111 16.0244C7.90845 16.0244 7.69315 16.0024 7.4831 15.9614C7.92106 17.3647 9.1945 18.3867 10.7022 18.4158C9.52323 19.3634 8.03711 19.9294 6.42233 19.9294C6.14401 19.9294 5.86937 19.9127 5.59998 19.8798C7.12496 20.8814 8.93666 21.4667 10.8833 21.4667C17.2227 21.4667 20.6901 16.0815 20.6901 11.4109C20.6901 11.258 20.6859 11.1051 20.6796 10.9532C21.3534 10.4551 21.9373 9.83321 22.4 9.12352Z" fill="white"/>
</mask>
<g mask="url(#mask0_6_1739)">
<rect x="2.80005" y="2.80005" width="22.4" height="22.4" fill="#20A6FC"/>
</g>
</svg>
